<?xml version="1.0" encoding="utf-8"?>
<!-- Generator: Adobe Illustrator 24.2.0, SVG Export Plug-In . SVG Version: 6.00 Build 0)  -->
<svg version="1.1" id="Layer_1" xmlns="http://www.w3.org/2000/svg" xmlns:xlink="http://www.w3.org/1999/xlink" x="0px" y="0px"
	 viewBox="0 0 108 108" style="enable-background:new 0 0 108 108;" xml:space="preserve">
<style type="text/css">
	.st0{fill:#00508C;}
</style>
<path class="st0" d="M53.3,23.1c-20.3,0-36.7,16.4-36.7,36.7C16.6,80,33,96.5,53.2,96.5c20.3,0,36.7-16.4,36.7-36.7
	S73.5,23.1,53.3,23.1z M61.1,90.4C44.2,94.8,27,84.6,22.6,67.7c-4.4-16.9,5.8-34.1,22.7-38.5c16.9-4.4,34.1,5.8,38.5,22.7
	C88.2,68.8,78,86,61.1,90.4z"/>
<g>
	<path class="st0" d="M54.4,34.3c0-0.7,0-1.4,0-2.2c0-1.5-2.4-1.5-2.4,0c0,0.7,0,1.4,0,2.2C52.8,34.2,53.6,34.2,54.4,34.3z"/>
	<path class="st0" d="M52,85.4c0,0.5,0,1.1,0,1.6c0,1.5,2.4,1.5,2.4,0c0-0.5,0-1.1,0-1.6C53.6,85.4,52.8,85.4,52,85.4z"/>
</g>
<g>
	<path class="st0" d="M67,38.2c0.3-0.6,0.7-1.2,1-1.8c0.8-1.3-1.3-2.6-2.1-1.2c-0.3,0.6-0.7,1.2-1,1.8C65.6,37.4,66.3,37.8,67,38.2z
		"/>
	<path class="st0" d="M39.3,81.3c-0.3,0.5-0.5,0.9-0.8,1.4c-0.8,1.4,1.3,2.6,2.1,1.2c0.3-0.5,0.5-0.9,0.8-1.4
		C40.7,82.2,40,81.7,39.3,81.3z"/>
</g>
<g>
	<path class="st0" d="M30.4,71.4c-0.5,0.3-1,0.6-1.5,0.8c-1.4,0.8-0.2,2.9,1.2,2.1c0.5-0.3,1-0.6,1.5-0.8
		C31.1,72.8,30.7,72.1,30.4,71.4z"/>
	<path class="st0" d="M75.9,47.9c0.6-0.3,1.2-0.7,1.7-1c1.3-0.8,0.1-2.8-1.2-2.1c-0.6,0.3-1.2,0.7-1.7,1
		C75.1,46.5,75.5,47.2,75.9,47.9z"/>
</g>
<g>
	<path class="st0" d="M80.7,58.4c-0.6,0-1.3,0-1.9,0c0,0.8,0.1,1.6,0,2.4c0.6,0,1.3,0,1.9,0C82.2,60.8,82.2,58.4,80.7,58.4z"/>
	<path class="st0" d="M27.7,58.4c-0.6,0-1.2,0-1.9,0c-1.6,0-1.6,2.4,0,2.4c0.6,0,1.2,0,1.8,0C27.6,60,27.6,59.2,27.7,58.4z"/>
</g>
<g>
	<path class="st0" d="M28.9,46.9c0.6,0.3,1.1,0.6,1.7,1c0.4-0.7,0.8-1.4,1.2-2.1c-0.6-0.3-1.2-0.7-1.7-1
		C28.7,44,27.5,46.1,28.9,46.9z"/>
	<path class="st0" d="M77.6,72.2c-0.5-0.3-1-0.6-1.5-0.9c-0.4,0.7-0.8,1.4-1.2,2.1c0.5,0.3,1,0.6,1.5,0.8C77.7,75.1,79,73,77.6,72.2
		z"/>
</g>
<g>
	<path class="st0" d="M67.2,81.3c-0.7,0.4-1.4,0.8-2.1,1.2c0.3,0.5,0.5,0.9,0.8,1.4c0.8,1.3,2.8,0.1,2.1-1.2
		C67.7,82.2,67.5,81.8,67.2,81.3z"/>
	<path class="st0" d="M39.5,38.2c0.7-0.4,1.4-0.8,2.1-1.2c-0.3-0.6-0.7-1.2-1-1.8c-0.8-1.4-2.9-0.2-2.1,1.2
		C38.8,37,39.2,37.6,39.5,38.2z"/>
</g>
<g>
	<g>
		<g>
			<g>
				<path class="st0" d="M66.6,45.1c-3.6-3.5-8.4-5.4-13.4-5.4v-1.9c5.5,0,10.7,2.1,14.7,5.9L66.6,45.1z"/>
			</g>
		</g>
	</g>
</g>
<g>
	<g>
		<g>
			<g>
				<path class="st0" d="M59.4,12.3c-1.4-0.5-3.7-0.8-6.2-0.8s-4.7,0.3-6.2,0.8c0,0,0,0-0.1,0v2.4v10.5h12.5V14.7V12.3
					C59.5,12.3,59.4,12.3,59.4,12.3z"/>
			</g>
		</g>
	</g>
</g>
<g>
	<g>
		<g>
			<g>
				<path class="st0" d="M91.4,30.5c-0.7-1.3-2-3.1-3.8-4.9s-3.6-3.1-4.9-3.8c0,0,0,0-0.1,0l-1.7,1.7l-7.4,7.4l8.8,8.8l7.4-7.4
					L91.4,30.5L91.4,30.5z"/>
			</g>
		</g>
	</g>
</g>
<g>
	<g>
		<g>
			<g>
				<g>
					<path class="st0" d="M51.3,31.3c0,9.3,0,18.6,0,28c0,2.5,3.8,2.5,3.8,0c0-9.3,0-18.6,0-28C55.2,28.9,51.3,28.9,51.3,31.3
						L51.3,31.3z"/>
				</g>
			</g>
		</g>
	</g>
</g>
<g>
	<g>
		<g>
			<g>
				<g>
					<path class="st0" d="M53.4,60.9c8.1-4.7,16.2-9.3,24.3-14c1.3-0.8,0.1-2.8-1.2-2.1c-8.1,4.7-16.2,9.3-24.3,14
						C50.8,59.6,52,61.6,53.4,60.9L53.4,60.9z"/>
				</g>
			</g>
		</g>
	</g>
</g>
<g>
	<g>
		<g>
			<g>
				<polygon class="st0" points="68.6,40.3 70.7,48 63,45.9 				"/>
			</g>
		</g>
	</g>
</g>
</svg>
